<svg width="1440" height="960" viewBox="0 0 1440 960" fill="none" xmlns="http://www.w3.org/2000/svg">
  <defs>
    <linearGradient id="pageBg" x1="0" y1="0" x2="1440" y2="960" gradientUnits="userSpaceOnUse">
      <stop stop-color="#050607"/>
      <stop offset="0.46" stop-color="#0A0E10"/>
      <stop offset="1" stop-color="#11140F"/>
    </linearGradient>
    <linearGradient id="heroGlass" x1="264" y1="138" x2="1296" y2="484" gradientUnits="userSpaceOnUse">
      <stop stop-color="#FFFFFF" stop-opacity="0.15"/>
      <stop offset="0.44" stop-color="#88F5FF" stop-opacity="0.075"/>
      <stop offset="1" stop-color="#C7FF5E" stop-opacity="0.10"/>
    </linearGradient>
    <linearGradient id="heroImage" x1="842" y1="109" x2="1266" y2="492" gradientUnits="userSpaceOnUse">
      <stop stop-color="#DDFEFF" stop-opacity="0.42"/>
      <stop offset="0.43" stop-color="#78F0FF" stop-opacity="0.12"/>
      <stop offset="0.74" stop-color="#D7FF69" stop-opacity="0.14"/>
      <stop offset="1" stop-color="#030506" stop-opacity="0"/>
    </linearGradient>
    <linearGradient id="hardPanel" x1="304" y1="366" x2="718" y2="456" gradientUnits="userSpaceOnUse">
      <stop stop-color="#F8FFFE" stop-opacity="0.18"/>
      <stop offset="1" stop-color="#F8FFFE" stop-opacity="0.05"/>
    </linearGradient>
    <filter id="softGlow" x="646" y="-28" width="782" height="694" filterUnits="userSpaceOnUse" color-interpolation-filters="sRGB">
      <feGaussianBlur stdDeviation="30"/>
    </filter>
    <filter id="frost" x="248" y="118" width="1072" height="396" filterUnits="userSpaceOnUse" color-interpolation-filters="sRGB">
      <feGaussianBlur stdDeviation="8"/>
    </filter>
    <filter id="noise" x="0" y="0" width="1440" height="960" filterUnits="userSpaceOnUse" color-interpolation-filters="sRGB">
      <feTurbulence type="fractalNoise" baseFrequency="0.82" numOctaves="2" stitchTiles="stitch"/>
      <feColorMatrix type="saturate" values="0"/>
      <feComponentTransfer>
        <feFuncA type="table" tableValues="0 0.12"/>
      </feComponentTransfer>
    </filter>
    <clipPath id="heroClip">
      <path d="M276 132H1280V486H276V132Z"/>
    </clipPath>
  </defs>

  <rect width="1440" height="960" fill="url(#pageBg)"/>
  <rect width="1440" height="960" filter="url(#noise)" opacity="0.42"/>

  <!-- Left app rail -->
  <rect x="0" y="0" width="224" height="960" fill="#050607"/>
  <rect x="223" y="0" width="1" height="960" fill="#FFFFFF" opacity="0.1"/>
  <rect x="24" y="28" width="42" height="42" rx="10" fill="#EAFDFC" fill-opacity="0.09" stroke="#EAFDFC" stroke-opacity="0.16"/>
  <path d="M39 49C44 38 57 40 55 51C54 60 43 62 38 55" stroke="#D8FF63" stroke-width="2.2" stroke-linecap="square"/>
  <text x="78" y="54" fill="#F8FFFE" font-family="Inter, ui-sans-serif, system-ui" font-size="17" font-weight="700">MarkMaster</text>
  <text x="24" y="116" fill="#FFFFFF" fill-opacity="0.38" font-family="IBM Plex Mono, ui-monospace, monospace" font-size="10" letter-spacing="2">LIBRARY</text>
  <rect x="18" y="178" width="188" height="42" rx="12" fill="#D8FF63" fill-opacity="0.12" stroke="#D8FF63" stroke-opacity="0.36"/>
  <text x="56" y="204" fill="#F8FFFE" font-family="Inter, ui-sans-serif, system-ui" font-size="14" font-weight="600">Orbit</text>
  <circle cx="36" cy="199" r="8" stroke="#D8FF63" stroke-width="1.6"/>
  <path d="M28 199H44" stroke="#D8FF63" stroke-width="1.2"/>
  <g fill="#F8FFFE" fill-opacity="0.45" font-family="Inter, ui-sans-serif, system-ui" font-size="14">
    <text x="56" y="156">Dashboard</text>
    <text x="56" y="252">Collections</text>
    <text x="56" y="300">Analytics</text>
    <text x="56" y="348">Settings</text>
  </g>
  <g stroke="#F8FFFE" stroke-opacity="0.28" stroke-width="1.4">
    <rect x="30" y="142" width="13" height="13" rx="2"/>
    <path d="M31 242H43M31 248H43M31 254H39"/>
    <path d="M31 290L37 284L43 292M31 300H43"/>
    <circle cx="37" cy="342" r="7"/>
  </g>

  <!-- Top chrome -->
  <rect x="224" y="0" width="1216" height="76" fill="#070A0B" fill-opacity="0.74"/>
  <rect x="224" y="75" width="1216" height="1" fill="#FFFFFF" opacity="0.09"/>
  <text x="276" y="46" fill="#F8FFFE" font-family="Inter, ui-sans-serif, system-ui" font-size="22" font-weight="750">Orbit</text>
  <text x="350" y="46" fill="#FFFFFF" fill-opacity="0.45" font-family="Inter, ui-sans-serif, system-ui" font-size="14">Triage the bookmarks still circling your library.</text>
  <rect x="1210" y="24" width="154" height="32" rx="16" fill="#FFFFFF" fill-opacity="0.08" stroke="#FFFFFF" stroke-opacity="0.12"/>
  <circle cx="1228" cy="40" r="8" fill="#D8FF63"/>
  <text x="1244" y="45" fill="#F8FFFE" font-family="Inter, ui-sans-serif, system-ui" font-size="12" font-weight="600">Jonny</text>

  <!-- Hero image and panel -->
  <g clip-path="url(#heroClip)">
    <rect x="276" y="132" width="1004" height="354" fill="#0A0E10"/>
    <rect x="276" y="132" width="1004" height="354" fill="url(#heroGlass)"/>
    <rect x="276" y="132" width="1004" height="354" filter="url(#frost)" fill="#FFFFFF" fill-opacity="0.02"/>

    <!-- Minimal orbital background image treatment -->
    <g opacity="0.95">
      <ellipse cx="1044" cy="302" rx="314" ry="99" transform="rotate(-18 1044 302)" stroke="#F8FFFE" stroke-opacity="0.30" stroke-width="1.2"/>
      <ellipse cx="1036" cy="304" rx="248" ry="73" transform="rotate(14 1036 304)" stroke="#88F5FF" stroke-opacity="0.24" stroke-width="1"/>
      <ellipse cx="1033" cy="303" rx="170" ry="48" transform="rotate(-36 1033 303)" stroke="#D8FF63" stroke-opacity="0.28" stroke-width="1"/>
      <path d="M746 206C881 149 1062 146 1217 210" stroke="#FFFFFF" stroke-opacity="0.16" stroke-width="34" stroke-linecap="square"/>
      <path d="M785 428C913 482 1082 477 1229 411" stroke="#D8FF63" stroke-opacity="0.07" stroke-width="46" stroke-linecap="square"/>
      <circle cx="1036" cy="302" r="39" fill="#F8FFFE" fill-opacity="0.11" stroke="#FFFFFF" stroke-opacity="0.18"/>
      <circle cx="1036" cy="302" r="4" fill="#D8FF63"/>
      <rect x="1172" y="162" width="164" height="1" fill="#FFFFFF" opacity="0.22"/>
      <rect x="1142" y="188" width="106" height="1" fill="#D8FF63" opacity="0.28"/>
      <rect x="811" y="425" width="186" height="1" fill="#FFFFFF" opacity="0.18"/>
      <rect x="772" y="446" width="112" height="1" fill="#88F5FF" opacity="0.22"/>
    </g>
    <rect x="276" y="132" width="1004" height="354" fill="url(#heroImage)"/>

    <!-- Brutalist edge geometry -->
    <path d="M276 132H437V142H286V253H276V132Z" fill="#F8FFFE" fill-opacity="0.18"/>
    <path d="M1280 486H1112V476H1270V365H1280V486Z" fill="#D8FF63" fill-opacity="0.28"/>
    <rect x="276" y="132" width="1004" height="1" fill="#FFFFFF" fill-opacity="0.24"/>
    <rect x="276" y="485" width="1004" height="1" fill="#FFFFFF" fill-opacity="0.16"/>
  </g>
  <rect x="276" y="132" width="1004" height="354" rx="0" stroke="#FFFFFF" stroke-opacity="0.16"/>
  <rect x="282" y="138" width="992" height="342" rx="0" stroke="#FFFFFF" stroke-opacity="0.06"/>

  <!-- Hero content glass plate -->
  <rect x="304" y="168" width="482" height="274" rx="22" fill="#050607" fill-opacity="0.48" stroke="#FFFFFF" stroke-opacity="0.16"/>
  <rect x="304" y="168" width="482" height="274" rx="22" fill="url(#hardPanel)"/>
  <rect x="326" y="192" width="168" height="26" rx="6" fill="#050607" fill-opacity="0.72" stroke="#FFFFFF" stroke-opacity="0.12"/>
  <text x="340" y="209" fill="#D8FF63" font-family="IBM Plex Mono, ui-monospace, monospace" font-size="10" letter-spacing="2.4">ORBIT / DEFAULT</text>
  <text x="326" y="270" fill="#F8FFFE" font-family="Inter, ui-sans-serif, system-ui" font-size="51" font-weight="800" letter-spacing="-1.6">Make the next</text>
  <text x="326" y="326" fill="#F8FFFE" font-family="Inter, ui-sans-serif, system-ui" font-size="51" font-weight="800" letter-spacing="-1.6">move obvious.</text>
  <text x="328" y="362" fill="#FFFFFF" fill-opacity="0.70" font-family="Inter, ui-sans-serif, system-ui" font-size="16">Grok scans the visible queue or your selected</text>
  <text x="328" y="384" fill="#FFFFFF" fill-opacity="0.70" font-family="Inter, ui-sans-serif, system-ui" font-size="16">bookmarks, then you review every tag and move.</text>
  <rect x="326" y="410" width="196" height="42" rx="0" fill="#F8FFFE"/>
  <text x="356" y="437" fill="#050607" font-family="Inter, ui-sans-serif, system-ui" font-size="14" font-weight="750">Auto-categorize queue</text>
  <path d="M340 432L346 426L352 432" stroke="#050607" stroke-width="1.7" stroke-linecap="square"/>
  <rect x="536" y="410" width="142" height="42" rx="0" fill="#FFFFFF" fill-opacity="0.06" stroke="#FFFFFF" stroke-opacity="0.18"/>
  <text x="566" y="437" fill="#F8FFFE" font-family="Inter, ui-sans-serif, system-ui" font-size="14" font-weight="650">Open graph</text>
  <circle cx="552" cy="431" r="7" stroke="#88F5FF" stroke-width="1.4"/>

  <!-- Right side micro HUD embedded in image -->
  <rect x="884" y="348" width="318" height="76" rx="0" fill="#050607" fill-opacity="0.42" stroke="#FFFFFF" stroke-opacity="0.16"/>
  <text x="906" y="374" fill="#FFFFFF" fill-opacity="0.54" font-family="IBM Plex Mono, ui-monospace, monospace" font-size="10" letter-spacing="2">SCAN SCOPE</text>
  <text x="906" y="402" fill="#F8FFFE" font-family="Inter, ui-sans-serif, system-ui" font-size="22" font-weight="760">12 visible bookmarks</text>
  <rect x="1130" y="369" width="48" height="20" rx="10" fill="#D8FF63" fill-opacity="0.18" stroke="#D8FF63" stroke-opacity="0.28"/>
  <text x="1142" y="383" fill="#D8FF63" font-family="IBM Plex Mono, ui-monospace, monospace" font-size="9">LIVE</text>

  <!-- Sticky strip preview -->
  <rect x="276" y="512" width="1004" height="76" rx="18" fill="#070A0B" fill-opacity="0.82" stroke="#FFFFFF" stroke-opacity="0.13"/>
  <rect x="300" y="532" width="154" height="36" rx="18" fill="#F8FFFE"/>
  <text x="330" y="555" fill="#050607" font-family="Inter, ui-sans-serif, system-ui" font-size="13" font-weight="740">Review and apply</text>
  <text x="484" y="546" fill="#88F5FF" font-family="IBM Plex Mono, ui-monospace, monospace" font-size="10" letter-spacing="2">SCANNED</text>
  <text x="484" y="566" fill="#F8FFFE" font-family="Inter, ui-sans-serif, system-ui" font-size="14">12 bookmarks · 12 left to review</text>
  <rect x="896" y="530" width="94" height="40" rx="20" fill="#FFFFFF" fill-opacity="0.06" stroke="#FFFFFF" stroke-opacity="0.13"/>
  <text x="923" y="555" fill="#F8FFFE" font-family="Inter, ui-sans-serif, system-ui" font-size="13">Scan</text>
  <rect x="1004" y="530" width="122" height="40" rx="20" fill="#D8FF63" fill-opacity="0.13" stroke="#D8FF63" stroke-opacity="0.24"/>
  <text x="1030" y="555" fill="#F8FFFE" font-family="Inter, ui-sans-serif, system-ui" font-size="13">Decide</text>
  <rect x="1140" y="530" width="102" height="40" rx="20" fill="#FFFFFF" fill-opacity="0.05" stroke="#FFFFFF" stroke-opacity="0.11"/>
  <text x="1167" y="555" fill="#F8FFFE" font-family="Inter, ui-sans-serif, system-ui" font-size="13">Apply</text>

  <!-- Below fold hints -->
  <rect x="276" y="622" width="1004" height="110" rx="18" fill="#0A0E10" fill-opacity="0.82" stroke="#FFFFFF" stroke-opacity="0.1"/>
  <text x="304" y="656" fill="#FFFFFF" fill-opacity="0.42" font-family="IBM Plex Mono, ui-monospace, monospace" font-size="10" letter-spacing="2">RECENT PASS</text>
  <text x="304" y="684" fill="#F8FFFE" font-family="Inter, ui-sans-serif, system-ui" font-size="18" font-weight="700">Freshest bookmarks still in orbit</text>
  <rect x="306" y="704" width="255" height="8" rx="4" fill="#FFFFFF" fill-opacity="0.08"/>
  <rect x="304" y="766" width="1004" height="86" rx="18" fill="#0A0E10" fill-opacity="0.62" stroke="#FFFFFF" stroke-opacity="0.08"/>
  <rect x="328" y="790" width="46" height="46" rx="13" fill="#FFFFFF" fill-opacity="0.08"/>
  <rect x="394" y="796" width="180" height="10" rx="5" fill="#FFFFFF" fill-opacity="0.13"/>
  <rect x="394" y="818" width="428" height="8" rx="4" fill="#FFFFFF" fill-opacity="0.08"/>
  <rect x="1068" y="792" width="166" height="38" rx="0" fill="#FFFFFF" fill-opacity="0.05" stroke="#FFFFFF" stroke-opacity="0.12"/>
  <text x="1106" y="816" fill="#FFFFFF" fill-opacity="0.68" font-family="Inter, ui-sans-serif, system-ui" font-size="13">Review</text>

  <!-- Annotation labels in Paper-ish margin -->
  <text x="276" y="906" fill="#FFFFFF" fill-opacity="0.48" font-family="IBM Plex Mono, ui-monospace, monospace" font-size="11" letter-spacing="1.8">MOCKUP NOTES</text>
  <text x="276" y="928" fill="#FFFFFF" fill-opacity="0.38" font-family="Inter, ui-sans-serif, system-ui" font-size="13">Glass panel over a minimalist orbital image, hard square CTAs, no decorative blobs, and the sticky scan strip remains visible below the hero.</text>
</svg>
